<svg width="64" height="65" viewBox="0 0 64 65" fill="none" xmlns="http://www.w3.org/2000/svg">
<g id="Logo">
<path id="Path 1603" d="M39.7381 0.330078H39.6666V10.3847L39.3463 9.23905V9.24891L36.8826 0.463124L36.8764 0.437254C28.2848 1.04767 20.1274 4.44661 13.6443 10.1174L20.0649 20.6093L9.60129 14.1863C4.13901 20.5347 0.827111 28.4496 0.140434 36.7963L8.22282 40.0817H8.55571e-07C-0.00181532 48.8638 2.8879 57.4022 8.22282 64.3781L25.33 47.3165C23.8087 44.2987 23.2781 40.8779 23.8137 37.5411C24.3494 34.2042 25.924 31.1213 28.3133 28.7313C30.7027 26.3412 33.7851 24.7657 37.1219 24.2291C40.4586 23.6925 43.8795 24.2222 46.8978 25.7426L64 8.64652C57.0541 3.26917 48.5222 0.343812 39.7381 0.330078ZM46.9421 54.8187C46.9431 55.664 46.8342 56.5059 46.6181 57.3231L50.0674 58.8457L61.4081 63.8484L62.0659 63.2041L56.488 42.4137L51.0172 39.5557L50.5146 37.6857L57.5363 41.3555L58.4996 44.9797L61.2098 46.3976L58.9431 37.9518L51.4286 25.4063L50.5244 26.3105L34.0308 42.8177L36.2839 45.0794C36.5709 45.0548 36.8592 45.04 37.1462 45.04C38.4304 45.0399 39.702 45.2927 40.8885 45.784C42.075 46.2754 43.153 46.9957 44.0611 47.9038C44.9692 48.8118 45.6895 49.8899 46.1808 51.0764C46.6722 52.2629 46.925 53.5345 46.9249 54.8187M24.7263 63.7831L28.0894 51.3017L29.1759 50.193C26.7223 47.6494 25.2766 44.3009 25.1078 40.7708C24.9389 37.2407 26.0586 33.7696 28.2582 31.0035C30.4579 28.2373 33.5877 26.3647 37.0651 25.7341C40.5425 25.1035 44.1305 25.758 47.1614 27.5756L32.2113 42.5307L31.9464 42.7968L32.1694 43.0185L34.5432 45.3936L35.7837 46.6365C36.2397 46.5606 36.7012 46.5223 37.1634 46.522C39.1356 46.5216 41.0433 47.2238 42.5446 48.5027C44.0459 49.7816 45.0424 51.5535 45.3555 53.5006C45.4167 53.8804 45.4508 54.2641 45.4577 54.6487L24.7263 63.7831Z" fill="black"/>
</g>
</svg>
