<svg width="472" height="148" viewBox="0 0 472 148" fill="none" xmlns="http://www.w3.org/2000/svg">
<path d="M5.95473 39.5534H11.9095L25.448 70.1135H19.5495L5.95473 39.5534ZM17.3586 57.1367L14.7183 52.6988L24.6616 39.5534H30.4478L17.3586 57.1367ZM14.3812 52.3617L16.853 56.7997L6.79738 70.1135H1.01118L14.3812 52.3617ZM58.458 70.1135H53.9077V64.4397H53.7953L57.4468 45.9014H57.6715L59.5253 39.5534H64.4127L58.458 70.1135ZM49.1327 38.8231C51.155 38.8231 53.0463 39.3474 54.8065 40.3961C56.6042 41.4072 58.1397 42.9053 59.413 44.8902L58.6265 49.0473C57.503 47.362 56.2109 46.0886 54.7503 45.2273C53.3272 44.3659 51.7917 43.9352 50.1438 43.9352C48.3462 43.9352 46.9605 44.4408 45.9868 45.452C45.0505 46.4257 44.3202 48.3544 43.7959 51.2382L42.7285 56.912C42.3166 59.1965 42.1855 60.9942 42.3353 62.305C42.4851 63.5783 42.9345 64.4771 43.6835 65.0014C44.4325 65.4883 45.4437 65.7317 46.7171 65.7317C48.0278 65.7317 49.4135 65.4696 50.8741 64.9453C52.3722 64.3835 53.9077 63.5409 55.4806 62.4173L54.8627 66.0126C53.477 67.5856 51.8291 68.784 49.9191 69.6079C48.0091 70.3944 46.2676 70.7876 44.6947 70.7876C43.2716 70.7876 41.9795 70.5629 40.8185 70.1135C39.6575 69.7016 38.7025 68.9713 37.9535 67.9226C37.2045 66.874 36.7176 65.4509 36.4929 63.6532C36.3056 61.8556 36.4742 59.6085 36.9985 56.912L38.0658 51.2382C38.9272 46.6317 40.2567 43.4109 42.0544 41.5758C43.852 39.7407 46.2115 38.8231 49.1327 38.8231ZM72.8734 39.5534H78.4911L82.1426 67.3047H79.1652L93.715 39.5534H99.2203L82.9291 70.1135H77.2552L72.8734 39.5534ZM118.916 38.8231C121.538 38.8231 123.691 39.2725 125.377 40.1714C127.062 41.0702 128.242 42.2499 128.916 43.7105C129.627 45.1711 129.833 46.7628 129.534 48.4855L129.365 49.3843C128.841 52.0808 127.212 54.1219 124.478 55.5076C121.781 56.8933 117.943 57.5861 112.962 57.5861H108.748L109.029 53.8223H112.456C115.939 53.8223 118.692 53.3916 120.714 52.5302C122.736 51.6314 123.841 50.3393 124.028 48.654C124.216 47.0811 123.879 45.8826 123.017 45.0587C122.156 44.1973 120.733 43.7667 118.748 43.7667C116.538 43.7667 114.834 44.3659 113.636 45.5643C112.475 46.7628 111.651 48.654 111.164 51.2382L110.097 56.6873C109.46 60.2077 109.516 62.6233 110.265 63.9341C111.052 65.2449 112.587 65.9003 114.872 65.9003C116.52 65.9003 118.261 65.7879 120.096 65.5632C121.969 65.3011 123.785 64.9453 125.545 64.4959L125.995 69.4394C124.085 69.8888 122.193 70.2259 120.321 70.4506C118.448 70.6753 116.576 70.7876 114.703 70.7876C111.67 70.7876 109.31 70.2446 107.625 69.1585C105.94 68.0724 104.835 66.4808 104.31 64.3835C103.786 62.2488 103.805 59.6834 104.367 56.6873L105.434 51.2382C106.22 47.0436 107.7 43.9352 109.872 41.9128C112.082 39.853 115.096 38.8231 118.916 38.8231ZM161.926 38.8231C162.712 38.8231 163.461 38.9167 164.173 39.104C164.922 39.2538 165.54 39.4411 166.027 39.6658L163.78 45.0025C163.218 44.7404 162.6 44.5344 161.926 44.3846C161.289 44.2348 160.634 44.1599 159.96 44.1599C158.499 44.1599 156.907 44.5344 155.185 45.2834C153.499 46.0325 151.645 47.1185 149.623 48.5417L150.353 44.9464C152.151 42.924 154.061 41.4072 156.083 40.3961C158.143 39.3474 160.091 38.8231 161.926 38.8231ZM157.6 70.1135H135.467L136.365 65.3947H142.095L146.252 44.2161H140.466L141.365 39.5534H151.814V44.497H151.926L147.882 65.3947H158.499L157.6 70.1135Z" fill="black"/>
<path d="M278.873 73.0462V74.1135H263.649V73.0462C268.199 72.7091 268.367 72.5968 268.367 66.6982V46.0814L264.772 45.5196V44.3399L268.367 43.7219V41.5872C268.367 34.1719 273.873 28.6666 279.097 28.6666C281.681 28.6666 283.76 29.9025 283.76 31.9248C283.76 33.1045 283.03 34.509 280.951 34.509C277.468 34.509 279.49 30.6328 277.019 30.6328C274.772 30.6328 273.536 33.8348 273.536 40.8008V43.6096L279.659 44.3399V45.5196L273.536 46.1937V66.6982C273.536 72.5968 273.76 72.6529 278.873 73.0462ZM296.346 73.0462V74.1135H280.56V73.0462C285.11 72.7091 285.279 72.5968 285.279 66.6982V52.2608C285.279 48.6093 283.931 48.2161 279.998 48.2161V47.1487C284.38 47.1487 286.964 45.8567 289.436 43.2163L290.447 43.4972V48.3284C293.256 44.6208 295.559 43.2163 298.199 43.2163C300.671 43.2163 302.413 44.3961 302.413 46.3061C302.413 47.8228 301.345 49.2834 299.66 49.2834C297.301 49.2834 297.413 46.3622 295.334 46.3622C292.863 46.3622 290.447 49.9014 290.447 57.3729V66.6982C290.447 72.5968 290.672 72.6529 296.346 73.0462ZM310.57 39.0031C308.435 39.0031 306.75 37.374 306.75 35.2393C306.75 33.1045 308.435 31.4192 310.57 31.4192C312.704 31.4192 314.334 33.1045 314.334 35.2393C314.334 37.374 312.704 39.0031 310.57 39.0031ZM317.592 73.0462V74.1135H303.492V73.0462C308.042 72.7091 308.21 72.5968 308.21 66.6982V52.2608C308.21 48.6093 306.862 48.2161 302.93 48.2161V47.1487C307.312 47.1487 309.896 45.8567 312.929 43.2163L313.379 43.4972V66.6982C313.379 72.5968 313.603 72.6529 317.592 73.0462ZM331.932 74.6753C325.809 74.6753 320.416 69.6194 320.416 59.6761C320.416 50.3508 325.023 43.2163 332.606 43.2163C337.101 43.2163 342.269 45.8567 342.269 54.7887L325.921 56.474C325.978 64.395 329.011 71.4732 334.404 71.4732C337.101 71.4732 340.022 69.7317 342.381 67.26L343.055 68.1588C340.64 71.08 337.044 74.6753 331.932 74.6753ZM331.876 44.8455C328.449 44.8455 326.483 48.5531 326.034 53.8337H336.932C336.595 45.7443 333.561 44.8455 331.876 44.8455ZM374.733 74.1135H365.351V68.8891C362.823 72.4844 360.127 74.6753 356.588 74.6753C350.858 74.6753 346.42 69.0576 346.42 59.7323C346.42 49.452 352.543 43.2163 359.284 43.2163C361.644 43.2163 363.947 43.9466 365.351 44.7893V37.7672C365.351 34.1157 364.003 33.7225 360.071 33.7225V32.6551C364.452 32.6551 367.037 31.3631 370.07 28.7228L370.52 29.0036V66.6982C370.52 72.5968 370.744 72.6529 374.733 73.0462V74.1135ZM358.273 72.0912C361.25 72.0912 364.115 69.4509 365.351 64.0579V52.7102C365.351 46.9802 361.868 45.014 359.003 45.014C354.678 45.014 351.981 49.452 351.981 59.0582C351.981 67.7094 354.453 72.0912 358.273 72.0912ZM392.131 73.0462V74.1135H376.346V73.0462C380.896 72.7091 381.064 72.5968 381.064 66.6982V52.2608C381.064 48.6093 379.716 48.2161 375.784 48.2161V47.1487C380.166 47.1487 382.75 45.8567 385.222 43.2163L386.233 43.4972V48.3284C389.042 44.6208 391.345 43.2163 393.985 43.2163C396.457 43.2163 398.198 44.3961 398.198 46.3061C398.198 47.8228 397.131 49.2834 395.446 49.2834C393.086 49.2834 393.199 46.3622 391.12 46.3622C388.648 46.3622 386.233 49.9014 386.233 57.3729V66.6982C386.233 72.5968 386.457 72.6529 392.131 73.0462ZM406.355 39.0031C404.221 39.0031 402.535 37.374 402.535 35.2393C402.535 33.1045 404.221 31.4192 406.355 31.4192C408.49 31.4192 410.119 33.1045 410.119 35.2393C410.119 37.374 408.49 39.0031 406.355 39.0031ZM413.377 73.0462V74.1135H399.277V73.0462C403.827 72.7091 403.996 72.5968 403.996 66.6982V52.2608C403.996 48.6093 402.648 48.2161 398.715 48.2161V47.1487C403.097 47.1487 405.681 45.8567 408.715 43.2163L409.164 43.4972V66.6982C409.164 72.5968 409.389 72.6529 413.377 73.0462ZM427.83 44.8455C423.842 44.8455 421.651 49.6767 421.651 56.2493C421.651 64.2264 424.684 71.4732 430.133 71.4732C432.718 71.4732 435.751 69.7317 438.111 67.26L438.785 68.1588C436.369 71.08 432.999 74.6753 427.718 74.6753C421.37 74.6753 416.145 69.507 416.145 59.6761C416.145 50.3508 420.527 43.2163 429.965 43.2163C435.246 43.2163 437.661 45.3511 437.661 47.4296C437.661 48.9464 436.594 50.5755 434.684 50.5755C431.032 50.5755 432.156 44.8455 427.83 44.8455ZM453.629 73.0462V74.1135H439.529V73.0462C444.079 72.7091 444.247 72.5968 444.247 66.6982V37.7672C444.247 34.1157 442.899 33.7225 438.967 33.7225V32.6551C443.349 32.6551 445.933 31.3631 448.966 28.7228L449.416 29.0036V48.1037C454.191 44.6208 456.101 43.2163 459.247 43.2163C463.853 43.2163 465.819 46.3061 465.819 52.7102V66.6982C465.819 72.5968 466.044 72.6529 470.594 73.0462V74.1135H456.494V73.0462C460.483 72.7091 460.651 72.5968 460.651 66.6982V55.3505C460.651 48.0475 458.067 46.3622 455.651 46.3622C452.73 46.3622 449.416 49.3958 449.416 54.6202V66.6982C449.416 72.5968 449.64 72.6529 453.629 73.0462Z" fill="black"/>
<path d="M421.023 98.9681C418.955 98.9681 417.819 101.473 417.819 104.881C417.819 109.018 419.392 112.775 422.217 112.775C423.557 112.775 425.13 111.872 426.353 110.59L426.703 111.057C425.45 112.571 423.703 114.435 420.965 114.435C417.673 114.435 414.964 111.756 414.964 106.658C414.964 101.823 417.236 98.1234 422.13 98.1234C424.868 98.1234 426.12 99.2303 426.12 100.308C426.12 101.095 425.567 101.939 424.577 101.939C422.683 101.939 423.266 98.9681 421.023 98.9681ZM434.837 98.1234C438.973 98.1234 441.245 101.065 441.245 105.872C441.245 111.027 438.536 114.435 434.458 114.435C430.235 114.435 428.05 111.493 428.05 106.716C428.05 101.531 430.701 98.1234 434.837 98.1234ZM434.953 113.678C436.818 113.678 438.274 111.785 438.274 107.299C438.274 102.988 437.109 98.8808 434.254 98.8808C432.303 98.8808 431.108 100.774 431.108 105.202C431.108 109.629 432.215 113.678 434.953 113.678ZM458.234 114.144H453.369V111.435C452.058 113.299 450.66 114.435 448.825 114.435C445.854 114.435 443.553 111.523 443.553 106.687C443.553 101.357 446.728 98.1234 450.223 98.1234C451.447 98.1234 452.641 98.5021 453.369 98.939V95.2979C453.369 93.4046 452.67 93.2007 450.631 93.2007V92.6472C452.903 92.6472 454.243 91.9773 455.816 90.6082L456.049 90.7539V110.299C456.049 113.358 456.166 113.387 458.234 113.591V114.144ZM449.699 113.096C451.243 113.096 452.728 111.726 453.369 108.93V103.046C453.369 100.075 451.563 99.0555 450.078 99.0555C447.835 99.0555 446.437 101.357 446.437 106.338C446.437 110.823 447.718 113.096 449.699 113.096ZM465.653 114.435C462.478 114.435 459.682 111.814 459.682 106.658C459.682 101.823 462.07 98.1234 466.003 98.1234C468.333 98.1234 471.013 99.4925 471.013 104.124L462.536 104.998C462.565 109.105 464.138 112.775 466.935 112.775C468.333 112.775 469.848 111.872 471.071 110.59L471.421 111.057C470.168 112.571 468.304 114.435 465.653 114.435ZM465.624 98.9681C463.847 98.9681 462.828 100.891 462.595 103.629H468.246C468.071 99.4342 466.498 98.9681 465.624 98.9681Z" fill="black"/>
<path d="M17.0694 93.3189L12.8457 114.991H10.4863V112.049H10.4281L12.4379 101.824H12.4962L14.1565 93.3189H17.0694ZM8.01038 98.7659C9.05901 98.7659 10.0397 99.0378 10.9524 99.5815C11.8845 100.106 12.6807 100.883 13.3409 101.912L12.9331 104.067C12.3505 103.193 11.6806 102.533 10.9232 102.087C10.1853 101.64 9.38913 101.417 8.53469 101.417C7.60258 101.417 6.88407 101.679 6.37917 102.203C5.8937 102.708 5.51502 103.708 5.24316 105.203L4.68971 108.145C4.4761 109.33 4.40814 110.262 4.48581 110.942C4.56349 111.602 4.79652 112.068 5.1849 112.34C5.57328 112.592 6.0976 112.719 6.75785 112.719C7.43752 112.719 8.15602 112.583 8.91337 112.311C9.69013 112.019 10.4863 111.583 11.3019 111L10.9815 112.864C10.263 113.68 9.40855 114.301 8.41818 114.728C7.42781 115.136 6.52482 115.34 5.70922 115.34C4.97129 115.34 4.30133 115.224 3.69934 114.991C3.09735 114.777 2.60216 114.398 2.21378 113.855C1.8254 113.311 1.57295 112.573 1.45643 111.641C1.35934 110.709 1.44672 109.544 1.71859 108.145L2.27203 105.203C2.71867 102.815 3.40805 101.145 4.34017 100.193C5.27229 99.2417 6.49569 98.7659 8.01038 98.7659ZM26.7287 98.7659C28.0881 98.7659 29.2047 98.999 30.0785 99.465C30.9524 99.9311 31.5641 100.543 31.9136 101.3C32.2826 102.057 32.3894 102.883 32.234 103.776L32.1466 104.242C31.8748 105.64 31.0301 106.699 29.6125 107.417C28.2143 108.136 26.2238 108.495 23.6411 108.495H21.4564L21.6021 106.543H23.3789C25.1849 106.543 26.6122 106.32 27.6608 105.873C28.7095 105.407 29.2823 104.737 29.3794 103.863C29.4765 103.048 29.3018 102.426 28.8551 101.999C28.4085 101.553 27.6705 101.329 26.6413 101.329C25.4956 101.329 24.612 101.64 23.9906 102.261C23.3886 102.883 22.9614 103.863 22.709 105.203L22.1555 108.029C21.8254 109.854 21.8545 111.107 22.2429 111.786C22.6507 112.466 23.4469 112.806 24.6315 112.806C25.4859 112.806 26.3889 112.748 27.3404 112.631C28.3114 112.495 29.2532 112.311 30.1659 112.078L30.3989 114.641C29.4086 114.874 28.4279 115.049 27.4569 115.165C26.486 115.282 25.515 115.34 24.5441 115.34C22.9711 115.34 21.7477 115.059 20.8739 114.495C20 113.932 19.4271 113.107 19.1553 112.019C18.8834 110.913 18.8931 109.582 19.1844 108.029L19.7378 105.203C20.1456 103.028 20.9127 101.417 22.039 100.368C23.1847 99.3 24.748 98.7659 26.7287 98.7659ZM44.5732 98.7659C45.4471 98.7659 46.3695 98.8339 47.3404 98.9698C48.3308 99.1058 49.2144 99.2805 49.9911 99.4942L48.9425 101.883C48.2823 101.708 47.5346 101.572 46.6996 101.475C45.884 101.358 45.1364 101.3 44.4567 101.3C43.3304 101.3 42.4954 101.465 41.9516 101.795C41.4079 102.125 41.0972 102.562 41.0195 103.106C40.9418 103.63 41.0875 104.058 41.4564 104.388C41.8254 104.718 42.3206 105.019 42.942 105.291C43.5828 105.543 44.2528 105.805 44.9519 106.077C45.651 106.349 46.2918 106.689 46.8744 107.097C47.4764 107.505 47.9327 108.029 48.2434 108.67C48.5541 109.291 48.6027 110.087 48.3891 111.058L48.3599 111.262C48.0881 112.602 47.4084 113.622 46.3209 114.321C45.2529 115 43.8256 115.34 42.039 115.34C40.971 115.34 39.8447 115.262 38.6601 115.107C37.4755 114.971 36.3881 114.767 35.3977 114.495L36.3007 111.99C37.1745 112.223 38.1261 112.418 39.1553 112.573C40.1845 112.709 41.136 112.777 42.0099 112.777C43.175 112.777 44.0295 112.621 44.5732 112.311C45.1169 111.981 45.4471 111.476 45.5636 110.796C45.6413 110.214 45.4956 109.747 45.1266 109.398C44.7577 109.029 44.2625 108.718 43.6411 108.466C43.0197 108.194 42.3594 107.922 41.6603 107.65C40.9613 107.378 40.3204 107.058 39.7378 106.689C39.1553 106.301 38.7086 105.805 38.3979 105.203C38.1066 104.601 38.0484 103.834 38.2232 102.902L38.2814 102.698C38.5144 101.514 39.165 100.562 40.233 99.8437C41.3205 99.1252 42.7672 98.7659 44.5732 98.7659ZM64.7188 94.3384C64.7188 94.9404 64.5149 95.4453 64.1071 95.8531C63.7188 96.2415 63.175 96.4357 62.4759 96.4357C61.8351 96.4357 61.3691 96.3094 61.0778 96.057C60.8059 95.7851 60.67 95.4161 60.67 94.9501C60.67 94.3287 60.8739 93.8238 61.2817 93.4354C61.6895 93.047 62.2429 92.8528 62.942 92.8528C63.5828 92.8528 64.0392 92.9791 64.311 93.2315C64.5829 93.4839 64.7188 93.8529 64.7188 94.3384ZM63.2042 115.34C61.204 115.34 59.7864 114.816 58.9514 113.767C58.1358 112.699 57.9319 111.136 58.3397 109.077L59.7961 101.562H53.7082L54.1743 99.1446H63.2624L61.3399 109.077C61.0486 110.476 61.0681 111.447 61.3982 111.99C61.7283 112.515 62.3691 112.777 63.3207 112.777C63.8256 112.777 64.3208 112.757 64.8062 112.719C65.2917 112.66 65.7675 112.592 66.2335 112.515L66.4957 115.049C65.952 115.165 65.4082 115.243 64.8645 115.282C64.3402 115.321 63.7867 115.34 63.2042 115.34ZM85.7966 99.1446L82.8837 114.204C82.573 115.835 82.107 117.127 81.4856 118.078C80.8642 119.03 80.0777 119.709 79.1262 120.117C78.194 120.525 77.0871 120.729 75.8055 120.729C74.718 120.729 73.6403 120.642 72.5722 120.467C71.5042 120.311 70.4944 120.078 69.5428 119.768L70.4458 117.321C71.3003 117.593 72.1935 117.797 73.1257 117.933C74.0772 118.069 74.9996 118.136 75.8929 118.136C76.6502 118.136 77.2813 118.02 77.7862 117.787C78.3106 117.554 78.7475 117.136 79.097 116.534C79.4466 115.952 79.7184 115.127 79.9126 114.058L82.1847 102.436H82.3012L83.2624 99.1446H85.7966ZM77.8736 98.7659C78.9223 98.7659 79.9029 99.0378 80.8156 99.5815C81.7477 100.106 82.5439 100.883 83.2042 101.912L82.7964 104.067C82.2138 103.193 81.5438 102.533 80.7865 102.087C80.0486 101.64 79.2524 101.417 78.3979 101.417C77.7765 101.417 77.2522 101.533 76.825 101.766C76.4172 101.98 76.0774 102.358 75.8055 102.902C75.5336 103.446 75.3006 104.213 75.1064 105.203L74.7277 107.097C74.4947 108.281 74.417 109.213 74.4947 109.893C74.5918 110.553 74.8345 111.019 75.2229 111.291C75.6113 111.544 76.1356 111.67 76.7959 111.67C77.4949 111.67 78.2232 111.534 78.9805 111.262C79.7573 110.971 80.5437 110.534 81.3399 109.951L81.0195 111.816C80.3204 112.631 79.466 113.253 78.4562 113.68C77.4658 114.088 76.5628 114.292 75.7472 114.292C75.0093 114.292 74.3393 114.185 73.7374 113.971C73.1354 113.757 72.6305 113.379 72.2227 112.835C71.8343 112.291 71.5915 111.553 71.4944 110.621C71.3974 109.689 71.4847 108.514 71.7566 107.097L72.1353 105.203C72.5819 102.815 73.2713 101.145 74.2034 100.193C75.1355 99.2417 76.3589 98.7659 77.8736 98.7659ZM87.7077 114.991L90.7662 99.1446H93.213V101.708H93.2713L90.6789 114.991H87.7077ZM98.8349 104.679C99.0679 103.494 99.0485 102.659 98.7766 102.174C98.5047 101.689 97.9416 101.446 97.0872 101.446C96.4269 101.446 95.6696 101.64 94.8151 102.028C93.9801 102.397 93.1062 102.941 92.1935 103.66L92.4557 102.057C92.9606 101.397 93.5335 100.824 94.1743 100.339C94.8345 99.834 95.5142 99.4456 96.2133 99.1737C96.9318 98.9019 97.6018 98.7659 98.2232 98.7659C99.1941 98.7659 99.9903 98.9698 100.612 99.3776C101.253 99.766 101.689 100.397 101.923 101.271C102.156 102.125 102.126 103.261 101.835 104.679L99.8252 114.991H96.825L98.8349 104.679Z" fill="black"/>
<path d="M213.57 119.213C208.515 119.213 204.025 118.159 200.097 116.051C196.198 113.942 193.122 111.098 190.869 107.516C188.646 103.906 187.534 99.8486 187.534 95.3432C187.534 92.3397 188.126 89.596 189.31 87.1123C190.494 84.5997 192.285 82.1304 194.682 79.7044C197.108 77.2496 200.169 74.6503 203.866 71.9067L216.819 62.2462C220.458 59.5314 223.115 56.9899 224.79 54.6217C226.494 52.2246 227.346 49.481 227.346 46.3907C227.346 42.694 226.075 39.5316 223.533 36.9035C221.021 34.2754 217.815 32.9613 213.916 32.9613C211.259 32.9613 208.819 33.6544 206.595 35.0407C204.4 36.3981 202.638 38.1742 201.31 40.3692C200.01 42.5641 199.36 44.9178 199.36 47.4304C199.36 49.3943 199.822 51.3438 200.747 53.2787C201.7 55.1849 203.043 57.2931 204.775 59.6036C206.537 61.8851 208.645 64.5422 211.1 67.5746L251.475 118H245.064L207.981 71.7767C205.122 68.2533 202.653 65.1631 200.573 62.5061C198.494 59.8491 196.891 57.322 195.765 54.9249C194.638 52.5279 194.075 50.0008 194.075 47.3438C194.075 43.7915 194.942 40.5713 196.674 37.6833C198.436 34.7663 200.804 32.4559 203.779 30.7519C206.754 29.048 210.104 28.196 213.829 28.196C217.526 28.196 220.79 29.0047 223.62 30.622C226.45 32.2104 228.66 34.3909 230.248 37.1634C231.836 39.9071 232.631 42.9828 232.631 46.3907C232.631 50.1741 231.62 53.5964 229.598 56.6578C227.605 59.7191 224.501 62.8815 220.284 66.145L205.728 76.9752C200.877 80.6719 197.512 83.9643 195.635 86.8524C193.786 89.7404 192.862 92.5707 192.862 95.3432C192.862 98.8089 193.758 101.971 195.548 104.83C197.339 107.69 199.779 109.986 202.869 111.718C205.988 113.451 209.526 114.332 213.483 114.361C217.468 114.303 221.151 113.524 224.53 112.022C227.909 110.52 230.883 108.426 233.454 105.74C236.053 103.025 238.161 99.8053 239.779 96.0797C241.425 92.3252 242.493 88.152 242.984 83.56L248.14 83.8199C247.851 87.43 247.215 90.679 246.233 93.5671C245.251 96.4263 244.111 98.9533 242.811 101.148C241.54 103.343 240.313 105.206 239.129 106.737C238.782 107.199 238.45 107.646 238.132 108.08C237.815 108.513 237.468 108.932 237.093 109.336C234.176 112.484 230.595 114.924 226.349 116.657C222.133 118.361 217.873 119.213 213.57 119.213Z" fill="black"/>
</svg>
