<svg width="41" height="23" viewBox="0 0 41 23" fill="none" xmlns="http://www.w3.org/2000/svg">
<path d="M2.46409 7.41998H5.43209L12.1801 22.652H9.24009L2.46409 7.41998ZM8.14809 16.184L6.83209 13.972L11.7881 7.41998H14.6721L8.14809 16.184ZM6.66409 13.804L7.89609 16.016L2.88409 22.652H9.37805e-05L6.66409 13.804ZM20.5715 22.9304C19.4114 22.9304 18.3806 22.6884 17.4791 22.2045C16.5842 21.7206 15.8783 21.0677 15.3612 20.2457C14.8508 19.4171 14.5956 18.4858 14.5956 17.4517C14.5956 16.7623 14.7315 16.1326 15.0033 15.5625C15.2751 14.9858 15.686 14.419 16.2362 13.8622C16.7931 13.2988 17.4957 12.7022 18.3442 12.0724L21.3172 9.8551C22.1524 9.232 22.7623 8.64866 23.1467 8.1051C23.5378 7.55491 23.7334 6.92518 23.7334 6.2159C23.7334 5.36741 23.4417 4.64156 22.8584 4.03834C22.2817 3.43512 21.5459 3.13351 20.651 3.13351C20.0412 3.13351 19.481 3.2926 18.9706 3.61078C18.4668 3.92234 18.0625 4.33001 17.7575 4.8338C17.4592 5.33758 17.3101 5.87783 17.3101 6.45453C17.3101 6.90529 17.4162 7.35273 17.6283 7.79686C17.847 8.23436 18.1553 8.71826 18.553 9.24857C18.9574 9.77224 19.4413 10.3821 20.0047 11.0781L29.2717 22.652H27.8002L19.2888 12.0426C18.6325 11.2339 18.0658 10.5246 17.5885 9.91476C17.1112 9.30491 16.7433 8.72489 16.4848 8.1747C16.2263 7.62452 16.097 7.0445 16.097 6.43465C16.097 5.61931 16.2959 4.8802 16.6936 4.21732C17.098 3.54781 17.6415 3.01751 18.3243 2.62641C19.0071 2.23531 19.776 2.03976 20.6311 2.03976C21.4796 2.03976 22.2287 2.22537 22.8783 2.59658C23.5279 2.96116 24.035 3.46164 24.3996 4.098C24.7642 4.72773 24.9465 5.4337 24.9465 6.2159C24.9465 7.08427 24.7145 7.86978 24.2504 8.57243C23.7931 9.27508 23.0805 10.0009 22.1127 10.75L18.7717 13.2358C17.6581 14.0843 16.8859 14.84 16.455 15.5028C16.0307 16.1657 15.8186 16.8153 15.8186 17.4517C15.8186 18.2471 16.0241 18.973 16.4351 19.6293C16.8461 20.2855 17.4062 20.8125 18.1155 21.2102C18.8314 21.6079 19.6434 21.8101 20.5516 21.8168C21.4663 21.8035 22.3115 21.6245 23.0871 21.2798C23.8627 20.9351 24.5454 20.4545 25.1354 19.8381C25.732 19.215 26.2159 18.4758 26.5871 17.6207C26.9649 16.759 27.2102 15.8011 27.3229 14.7471L28.5061 14.8068C28.4398 15.6354 28.294 16.3811 28.0686 17.044C27.8432 17.7003 27.5814 18.2803 27.2831 18.7841C26.9914 19.2879 26.7097 19.7154 26.4379 20.0668C26.3584 20.1728 26.2822 20.2756 26.2092 20.375C26.1363 20.4744 26.0568 20.5705 25.9706 20.6633C25.3011 21.3859 24.4791 21.946 23.5047 22.3437C22.5369 22.7348 21.5592 22.9304 20.5715 22.9304ZM38.1683 22.12V22.652H30.5803V22.12C32.8483 21.952 32.9323 21.896 32.9323 18.956V8.67998L31.1403 8.39998V7.81198L32.9323 7.50398V6.43998C32.9323 2.74398 35.6763 -2.28882e-05 38.2803 -2.28882e-05C39.5683 -2.28882e-05 40.6043 0.615976 40.6043 1.62398C40.6043 2.21198 40.2403 2.91198 39.2043 2.91198C37.4683 2.91198 38.4763 0.979976 37.2443 0.979976C36.1243 0.979976 35.5083 2.57598 35.5083 6.04798V7.44798L38.5603 7.81198V8.39998L35.5083 8.73598V18.956C35.5083 21.896 35.6203 21.924 38.1683 22.12Z" fill="black"/>
</svg>
